<?xml version="1.0" standalone="no"?>
<!DOCTYPE svg PUBLIC "-//W3C//DTD SVG 1.1//EN" "http://www.w3.org/Graphics/SVG/1.1/DTD/svg11.dtd" >
<svg xmlns="http://www.w3.org/2000/svg" xmlns:xlink="http://www.w3.org/1999/xlink" version="1.1">
<metadata></metadata>
<defs>
<font id="fzzhengheis-eb-gbregular" horiz-adv-x="2048" vert-adv-y="2048" >
<font-face units-per-em="2048" ascent="1632" descent="-416" />
<missing-glyph horiz-adv-x="576" />
<glyph horiz-adv-x="0" vert-adv-y="0" />
<glyph horiz-adv-x="682" />
<glyph unicode=" "  horiz-adv-x="576" />
<glyph unicode="&#x09;" horiz-adv-x="576" />
<glyph unicode="&#xa0;" horiz-adv-x="576" />
<glyph unicode="!" horiz-adv-x="600" d="M112 -144v376h392v-376h-392zM112 1584h384l-40 -1200h-304z" />
<glyph unicode="&#x22;" horiz-adv-x="936" d="M80 1640h320l-32 -632h-248zM520 1640h328l-40 -632h-248z" />
<glyph unicode="#" horiz-adv-x="1504" d="M88 352v232h264l64 360h-240v232h280l80 424h288l-80 -424h208l80 424h280l-72 -424h208v-232h-248l-64 -360h224v-232h-272l-96 -528h-280l96 528h-208l-96 -528h-288l96 528h-224zM640 584h208l64 360h-208z" />
<glyph unicode="$" horiz-adv-x="1504" d="M120 80v288q248 -288 560 -320v544q-584 120 -552 544q16 416 552 464v200h208v-208q416 -64 488 -496h-328q-48 184 -160 232v-496q544 -152 544 -496q-8 -472 -544 -520v-200h-208v208q-336 24 -560 256zM496 1120q-8 -160 184 -232v464q-176 -56 -184 -232zM888 64 q168 48 168 248q0 152 -168 224v-472z" />
<glyph unicode="%" horiz-adv-x="2216" d="M96 1144q16 440 424 456q416 -8 424 -448q-8 -448 -424 -456q-408 16 -424 448zM368 1152q0 -232 152 -240q152 0 152 240q0 232 -152 232q-152 8 -152 -232zM464 -240l960 1848h328l-968 -1848h-320zM1264 208q16 440 432 456q416 -8 424 -448q-8 -432 -424 -440 q-416 16 -432 432zM1544 216q0 -232 144 -232q152 0 152 232t-152 232q-152 8 -144 -232z" />
<glyph unicode="&#x26;" horiz-adv-x="1864" d="M96 288q-8 296 344 496q-128 224 -120 400q32 400 536 416q448 -16 488 -392q24 -336 -456 -512q144 -168 368 -336q96 152 152 368h344q-96 -344 -240 -544q128 -80 296 -176v-216q-96 48 -264 128q-136 64 -192 88q-232 -184 -640 -184q-600 16 -616 464zM456 312 q8 -264 296 -272q184 0 328 120q-264 176 -456 384v8l-8 8q-160 -112 -160 -248zM656 1184q-8 -128 64 -264q312 136 296 280q-8 160 -168 168q-160 -16 -192 -184z" />
<glyph unicode="'" horiz-adv-x="480" d="M96 1640h312l-32 -640h-248z" />
<glyph unicode="(" horiz-adv-x="832" d="M80 664q8 544 400 1048h288q-336 -464 -336 -1048q0 -576 336 -1016h-288q-400 416 -400 1016z" />
<glyph unicode=")" horiz-adv-x="840" d="M80 -352q336 440 336 1016q8 600 -336 1048h288q392 -504 400 -1048q0 -600 -400 -1016h-288z" />
<glyph unicode="*" horiz-adv-x="1024" d="M64 1176l72 256l288 -136l-56 312h280l-56 -312l296 136l72 -264l-304 -40l224 -216l-224 -160l-144 280l-152 -280l-216 168l224 208z" />
<glyph unicode="+" horiz-adv-x="1392" d="M88 608v240h456v472h312v-472h448v-240h-448v-496h-312v496h-456z" />
<glyph unicode="," horiz-adv-x="560" d="M56 -472q208 104 224 312h-192v376h392v-320q8 -376 -424 -520v152z" />
<glyph unicode="-" horiz-adv-x="1232" d="M80 584v248h1088v-248h-1088z" />
<glyph unicode="." horiz-adv-x="568" d="M88 -160v376h384v-376h-384z" />
<glyph unicode="/" horiz-adv-x="712" d="M16 -328l400 2008h296l-400 -2008h-296z" />
<glyph unicode="0" horiz-adv-x="1504" d="M88 712q16 872 664 904q664 -8 672 -904t-672 -888q-656 16 -664 888zM472 704q0 -648 288 -648q272 0 272 648q8 680 -272 664q-288 8 -288 -664z" />
<glyph unicode="1" horiz-adv-x="1192" d="M64 864v216q400 168 552 504h384v-1728h-384v1216q-224 -160 -552 -208z" />
<glyph unicode="2" horiz-adv-x="1448" d="M80 1024q104 576 680 584q584 -16 608 -496q24 -344 -392 -592q-368 -216 -504 -440h888v-224h-1272v232q168 288 504 536q416 296 392 472q0 272 -248 264q-256 -8 -296 -336h-360z" />
<glyph unicode="3" horiz-adv-x="1496" d="M112 1104q104 496 648 504q592 -16 608 -448q8 -328 -360 -408q392 -72 408 -416q0 -512 -640 -512q-392 -8 -624 232v280q232 -272 536 -272q328 8 336 272q0 248 -376 248h-160v296h152q352 0 352 248q-8 224 -240 232q-248 -8 -280 -256h-360z" />
<glyph unicode="4" horiz-adv-x="1512" d="M64 208v248l832 1128h352v-1128h208v-248h-208v-352h-368v352h-816zM424 456h456v624z" />
<glyph unicode="5" horiz-adv-x="1488" d="M104 56v280q232 -272 536 -280q352 8 360 328q8 296 -360 296h-472v888h1176v-248h-808v-392h224q624 -8 632 -536q-24 -544 -640 -568q-424 -8 -648 232z" />
<glyph unicode="6" horiz-adv-x="1488" d="M88 712q16 880 688 904q496 0 608 -464h-336q-72 216 -272 216q-296 -32 -304 -504q152 96 320 96q592 -24 616 -552q-16 -568 -624 -584q-704 -16 -696 888zM480 408q16 -328 288 -352q240 24 256 336q-8 312 -272 328q-256 -16 -272 -312z" />
<glyph unicode="7" horiz-adv-x="1408" d="M72 1312v248h1272v-248q-552 -760 -600 -1456h-384q72 728 600 1456h-888z" />
<glyph unicode="8" horiz-adv-x="1496" d="M80 304q16 336 384 440q-336 88 -336 400q48 440 632 464q584 -24 632 -464q0 -296 -376 -400q408 -88 408 -424q-8 -496 -680 -504q-648 16 -664 488zM472 304q16 -240 280 -256q272 8 280 248q0 232 -288 296q-272 -72 -272 -288zM512 1144q-8 -192 248 -256 q240 64 248 248q-8 216 -248 224q-232 -16 -248 -216z" />
<glyph unicode="9" horiz-adv-x="1472" d="M80 1000q40 584 632 608q704 32 688 -904q0 -880 -680 -880q-384 0 -600 224v264q208 -248 512 -256q400 8 392 512q-144 -112 -328 -104q-592 16 -616 536zM464 1032q8 -320 272 -328q248 16 264 312q-8 328 -272 344q-248 -16 -264 -328z" />
<glyph unicode=":" horiz-adv-x="624" d="M120 -152v376h392v-376h-392zM120 696v384h392v-384h-392z" />
<glyph unicode=";" horiz-adv-x="624" d="M96 -464q208 96 216 312h-192v376h392v-328q16 -384 -416 -512v152zM120 696v384h392v-384h-392z" />
<glyph unicode="&#x3c;" horiz-adv-x="1432" d="M88 584v232l1264 632v-344l-872 -400l872 -384v-328z" />
<glyph unicode="=" horiz-adv-x="1400" d="M104 312v248h1208v-248h-1208zM104 856v248h1208v-248h-1208z" />
<glyph unicode="&#x3e;" horiz-adv-x="1432" d="M96 0v328l872 384l-872 392v352l1264 -640v-232z" />
<glyph unicode="?" horiz-adv-x="1368" d="M80 1040q80 560 624 560q576 -16 592 -440q16 -240 -280 -456q-184 -144 -176 -280v-64h-360v88q-16 232 224 384q200 152 200 312q-8 208 -200 216q-216 -8 -264 -320h-360zM472 -144v376h392v-376h-392z" />
<glyph unicode="@" horiz-adv-x="2016" d="M96 544q80 992 992 1056q848 -40 904 -864q-16 -696 -536 -720q-184 0 -256 136q-104 -128 -296 -120q-328 32 -336 464q32 600 512 624h408l-64 -728q-8 -176 88 -176q224 8 224 504q-24 640 -640 664q-688 -48 -736 -848q24 -736 712 -760q400 -16 768 224v-128 q-296 -280 -792 -272q-912 40 -952 944zM832 488q-8 -256 152 -248q176 -8 216 464l16 208h-128q-248 -8 -256 -424z" />
<glyph unicode="A" horiz-adv-x="1800" d="M16 -144l648 1720h464l648 -1720h-400l-144 392h-672l-144 -392h-400zM640 496h504l-248 728z" />
<glyph unicode="B" horiz-adv-x="1720" d="M144 -144v1720h864q552 -8 560 -424v-16q0 -283 -280 -384q336 -96 352 -400q1 -18 1 -35q0 -462 -609 -461h-40h-848zM528 80h432q288 0 288 235v13q0 264 -288 264h-432v-512zM528 880h392q256 0 256 219v13q0 224 -272 224h-376v-456z" />
<glyph unicode="C" horiz-adv-x="1752" d="M88 712q40 840 824 888q632 -8 760 -568h-376q-80 320 -360 320q-448 -16 -456 -656q16 -608 536 -640q13 -1 26 -1q328 0 590 385v-328q-232 -288 -704 -288q-800 40 -840 888z" />
<glyph unicode="D" horiz-adv-x="1720" d="M152 -144v1720h536h35q917 0 917 -820v-28q2 -43 2 -83q0 -790 -850 -791q-39 0 -80 2h-560zM536 80h144h28q541 0 541 597q0 25 -1 51q1 24 1 47q0 561 -554 561h-15h-144v-1256z" />
<glyph unicode="E" horiz-adv-x="1592" d="M152 -144v1720h1352v-240h-968v-480h904v-248h-904v-528h968v-224h-1352z" />
<glyph unicode="F" horiz-adv-x="1464" d="M152 -144v1720h1240v-240h-864v-512h816v-248h-816v-720h-376z" />
<glyph unicode="G" horiz-adv-x="1832" d="M96 720q32 840 856 880q600 0 776 -504h-400q-88 264 -376 264q-448 -40 -472 -648q24 -616 504 -656h17q290 0 375 264v288h-512v240h872v-640q-160 -384 -760 -384q-848 32 -880 896z" />
<glyph unicode="H" horiz-adv-x="1824" d="M152 -144v1720h384v-704h776v704h376v-1720h-376v768h-776v-768h-384z" />
<glyph unicode="I" horiz-adv-x="656" d="M144 -144v1720h376v-1720h-376z" />
<glyph unicode="J" horiz-adv-x="1536" d="M96 16v248q263 -216 503 -216h17h24q369 0 369 458q0 19 -1 38v1032h384v-1072q0 -688 -648 -688h-31q-394 0 -617 200z" />
<glyph unicode="K" horiz-adv-x="1808" d="M144 -144v1720h384v-816l720 816h496l-696 -728l744 -992h-448l-544 728l-272 -288v-440h-384z" />
<glyph unicode="L" horiz-adv-x="1504" d="M144 -144v1720h384v-1496h896v-224h-1280z" />
<glyph unicode="M" horiz-adv-x="2120" d="M152 -144v1720h584l328 -1240h16l320 1240h584v-1720h-368v1360l-384 -1360h-336l-368 1360v-1360h-376z" />
<glyph unicode="N" horiz-adv-x="1832" d="M152 -144v1728h376l776 -1208v1208h376v-1728h-360l-792 1160v-1160h-376z" />
<glyph unicode="O" horiz-adv-x="1912" d="M112 704q40 864 856 896q800 -48 856 -896q-40 -832 -856 -880q-816 48 -856 880zM496 704q16 -624 472 -656q456 16 464 656q-16 632 -464 656q-448 -32 -472 -656z" />
<glyph unicode="P" horiz-adv-x="1608" d="M152 -144v1720h744q624 0 624 -546v-14q0 -14 1 -28q0 -533 -591 -532h-34h-368v-600h-376zM528 704h296h16q297 0 297 283q0 14 -1 29v16q0 304 -297 304h-15h-296v-632z" />
<glyph unicode="Q" horiz-adv-x="1896" d="M96 704q40 864 856 896q800 -48 856 -896q-16 -640 -552 -832l424 -520h-464l-376 472q-712 128 -744 880zM480 696q16 -616 472 -648q456 16 464 648q-16 648 -464 664q-448 -32 -472 -664z" />
<glyph unicode="R" horiz-adv-x="1696" d="M152 -144v1720h824q624 0 624 -536v-16q0 -440 -424 -488l512 -680h-440l-480 664h-240v-664h-376zM528 768h368h18q294 0 295 239q0 12 -1 25v15q0 289 -296 289h-16h-368v-568z" />
<glyph unicode="S" horiz-adv-x="1632" d="M112 144v304q296 -392 680 -400q360 0 368 264q0 208 -328 264q-684 112 -684 492q0 29 4 60q24 464 648 472q608 -16 704 -536h-368q-88 280 -328 288q-264 0 -264 -211v-13q-1 -10 -1 -19q0 -184 305 -229q704 -136 704 -544v-11q0 -501 -704 -501q-30 -2 -60 -2 q-422 0 -676 322z" />
<glyph unicode="T" horiz-adv-x="1696" d="M96 1336v240h1520v-240h-568v-1480h-384v1480h-568z" />
<glyph unicode="U" horiz-adv-x="1832" d="M152 584v992h384v-1080q0 -440 392 -440q14 -1 27 -1q365 0 366 407q0 17 -1 34v1080h384v-976q2 -38 2 -74q0 -704 -711 -704q-37 0 -75 2q-24 -1 -46 -1q-722 0 -723 716q0 22 1 45z" />
<glyph unicode="V" horiz-adv-x="1784" d="M24 1576h408l480 -1416l456 1416h408l-648 -1720h-448z" />
<glyph unicode="W" horiz-adv-x="2296" d="M24 1576h392l240 -1336l288 1336h432l304 -1336l216 1336h384l-376 -1720h-440l-296 1240l-304 -1240h-464z" />
<glyph unicode="X" horiz-adv-x="1800" d="M16 -144l608 856l-568 864h448l392 -640l376 640h448l-568 -864l632 -856h-472l-416 632l-416 -632h-464z" />
<glyph unicode="Y" horiz-adv-x="1800" d="M24 1576h448l448 -736l432 736h440l-704 -1048v-672h-376v672z" />
<glyph unicode="Z" horiz-adv-x="1688" d="M80 80l1032 1256h-1000v240h1472v-240l-1040 -1256h1080v-224h-1544v224z" />
<glyph unicode="[" horiz-adv-x="816" d="M104 -288v2016h664v-240h-336v-1528h336v-248h-664z" />
<glyph unicode="\" horiz-adv-x="712" d="M24 1728h280l400 -2008h-288z" />
<glyph unicode="]" horiz-adv-x="816" d="M72 -40h336v1528h-336v240h664v-2016h-664v248z" />
<glyph unicode="^" horiz-adv-x="1248" d="M16 648l488 960h240l488 -952h-328l-272 624l-280 -632h-336z" />
<glyph unicode="_" horiz-adv-x="1504" d="M96 48h1336v-208h-1336v208z" />
<glyph unicode="`" horiz-adv-x="624" d="M16 1680h352l240 -424h-304z" />
<glyph unicode="a" horiz-adv-x="1488" d="M96 184q-2 25 -2 49q0 392 591 392q32 0 67 -1h264q-8 232 -272 240q-208 -8 -288 -160h-344q112 400 632 408h36q604 0 604 -510v-26v-752h-760q-512 8 -528 360zM464 216v-9q0 -151 272 -151h288v328h-272h-26q-263 0 -263 -151q0 -8 1 -17z" />
<glyph unicode="b" horiz-adv-x="1520" d="M152 -176v1872h384v-584h216q688 0 688 -656v-14q0 -618 -671 -618h-17h-600zM536 56h144q376 0 376 392v17q0 399 -370 399h-14h-136v-808z" />
<glyph unicode="c" horiz-adv-x="1536" d="M88 464q24 624 696 640q520 0 656 -440h-376q-72 200 -280 200q-296 -16 -304 -416q0 -400 416 -400q264 0 544 272v-272q-224 -232 -640 -232q-664 32 -712 648z" />
<glyph unicode="d" horiz-adv-x="1520" d="M88 456q0 656 688 656h224v584h376v-1872h-600h-17q-671 0 -671 618v14zM480 448q0 -392 368 -392h152v808h-144h-14q-362 0 -362 -399v-17z" />
<glyph unicode="e" horiz-adv-x="1544" d="M96 440q16 648 664 664h28q652 0 652 -718v-34h-960q56 -288 416 -304q288 0 528 240v-256q-216 -216 -608 -216q-688 24 -720 624zM488 592h584q-8 264 -296 272q-248 0 -288 -272z" />
<glyph unicode="f" horiz-adv-x="1024" d="M80 848v240h200v160v16q0 432 425 432h15h344v-248h-208h-15q-177 0 -177 -177v-15v-168h272v-240h-272v-992h-384v992h-200z" />
<glyph unicode="g" horiz-adv-x="1528" d="M96 472q0 632 680 632h608v-1184q0 -576 -632 -576h-27q-381 0 -597 216v272q232 -240 504 -240h19q350 0 350 280q0 12 -1 24h-224h-18q-662 0 -662 563v13zM480 464q0 -336 368 -336h152v728h-144h-15q-361 0 -361 -376v-16z" />
<glyph unicode="h" horiz-adv-x="1496" d="M144 -136v1824h384v-576h320q528 0 528 -456v-792h-376v736v14q0 250 -280 250h-192v-1000h-384z" />
<glyph unicode="i" horiz-adv-x="648" d="M136 -144v1224h384v-1224h-384zM136 1264v312h384v-312h-384z" />
<glyph unicode="j" horiz-adv-x="648" d="M-200 -360q92 -57 179 -57q10 0 21 1q136 0 136 176v1320h376v-1280q1 -17 1 -34q0 -431 -382 -431q-13 0 -27 1q-152 0 -304 80v224zM136 1256v320h376v-320h-376z" />
<glyph unicode="k" horiz-adv-x="1520" d="M144 -136v1824h376v-1080l472 480h488l-504 -488l528 -736h-440l-344 488l-200 -184v-304h-376z" />
<glyph unicode="l" horiz-adv-x="648" d="M136 -136v1824h384v-1824h-384z" />
<glyph unicode="m" horiz-adv-x="2256" d="M136 -144v1248h1496q17 1 34 1q463 0 462 -421v-28v-800h-376v768q-8 240 -256 240h-176v-1008h-376v784q0 224 -232 224h-200v-1008h-376z" />
<glyph unicode="n" horiz-adv-x="1480" d="M128 -144v1248h720h18q494 0 494 -422v-26v-800h-376v768q0 240 -264 240h-216v-1008h-376z" />
<glyph unicode="o" horiz-adv-x="1512" d="M88 456q32 632 680 656q640 -16 664 -656q-24 -608 -672 -632q-640 32 -672 632zM480 456q8 -392 280 -400q288 0 288 400q-8 400 -288 408q-280 0 -280 -408z" />
<glyph unicode="p" horiz-adv-x="1520" d="M144 -648v1752h600h17q671 0 671 -625v-15v-15q0 -625 -671 -625h-17h-216v-472h-384zM528 56h136h14q370 0 370 399v17q0 392 -376 392h-144v-808z" />
<glyph unicode="q" horiz-adv-x="1520" d="M96 464v28q0 612 671 612h17h600v-1752h-384v472h-216h-17q-671 0 -671 625v15zM480 472q-1 -17 -1 -33q0 -384 357 -384q14 0 28 1h136v808h-152q-360 0 -368 -392z" />
<glyph unicode="r" horiz-adv-x="1064" d="M128 -168v824q0 448 464 448h448v-248h-312h-17q-207 0 -207 -186v-14v-824h-376z" />
<glyph unicode="s" horiz-adv-x="1400" d="M96 24v232q232 -184 488 -200q44 -3 82 -3q255 0 262 139q1 7 1 13q0 102 -241 147q-144 24 -272 56q-280 88 -288 328q16 368 536 376q20 1 38 1q454 0 570 -369h-376q-48 120 -216 120q-160 -8 -168 -112v-8q0 -82 168 -112l288 -72q344 -86 344 -363v-13v-10 q0 -342 -552 -350h-29q-381 0 -635 200z" />
<glyph unicode="t" horiz-adv-x="984" d="M48 832v240h216v512h376v-512h280v-240h-280v-584v-18q0 -159 128 -159q11 0 24 1q72 8 152 56v-208q-120 -96 -288 -96h-16q-376 0 -376 369v15v624h-216z" />
<glyph unicode="u" horiz-adv-x="1488" d="M128 328v752h384v-728v-18q0 -279 243 -278h13h216v1024h376v-1248h-720h-32q-481 0 -480 466v30z" />
<glyph unicode="v" horiz-adv-x="1400" d="M16 1080h408l280 -904l280 904h408l-480 -1216h-432z" />
<glyph unicode="w" horiz-adv-x="2168" d="M24 1080h408l232 -856l232 856h376l240 -856l232 856h408l-432 -1224h-424l-208 752h-8l-224 -752h-400z" />
<glyph unicode="x" horiz-adv-x="1496" d="M16 -144l472 624l-432 600h416l288 -424l280 424h416l-448 -608l480 -616h-440l-288 424l-304 -424h-440z" />
<glyph unicode="y" horiz-adv-x="1400" d="M8 1080h416l296 -800l248 800h408l-512 -1280q-168 -465 -495 -465q-17 0 -33 1q-152 0 -272 72v208q96 -32 176 -32q152 0 216 144l72 160z" />
<glyph unicode="z" horiz-adv-x="1288" d="M72 88l672 744h-648v248h1120v-240l-696 -752h720v-232h-1168v232z" />
<glyph unicode="{" horiz-adv-x="960" d="M88 592v240q216 0 216 232v248q-16 456 488 440h104v-216h-96q-168 -8 -176 -208v-256q8 -280 -208 -360q208 -72 208 -368v-248q0 -192 184 -192h88v-216h-96q-512 -8 -496 416v272q0 216 -216 216z" />
<glyph unicode="|" horiz-adv-x="480" d="M88 -384v2208h312v-2208h-312z" />
<glyph unicode="}" horiz-adv-x="960" d="M80 -96h80q192 0 192 192v248q-8 288 200 368q-208 80 -200 360v256q-8 200 -176 208h-96v216h104q504 16 488 -440v-248q0 -240 216 -240v-232q-216 8 -216 -216v-272q16 -424 -496 -416h-96v216z" />
<glyph unicode="~" horiz-adv-x="1424" d="M88 504v272q160 152 368 152q152 8 304 -88q144 -72 280 -72q152 8 304 152v-264q-120 -152 -344 -152q-136 0 -296 80t-288 80q-176 0 -328 -160z" />
<glyph unicode="&#xa4;" d="M64 1432h416l168 -176q168 96 384 96q208 0 360 -96l176 176h408l-368 -376q120 -176 120 -400q0 -216 -136 -408l344 -352h-424l-160 160q-144 -64 -336 -64q-168 0 -320 64l-160 -160h-424l352 360q-144 184 -144 400t120 400zM656 656q32 -392 360 -432 q352 24 376 432q-24 416 -360 448q-352 -24 -376 -448z" />
<glyph unicode="&#xa7;" d="M464 688q8 216 272 328q-240 104 -240 320q32 344 528 368q280 0 456 -80v-272q-232 104 -408 104q-152 0 -152 -128q0 -112 256 -184q392 -120 400 -360t-248 -336q248 -120 256 -328q-24 -352 -600 -360q-216 -8 -448 80v248q216 -88 400 -88q224 0 216 120 q8 104 -208 152q-472 112 -480 416zM840 712q0 -120 176 -176q192 56 184 200t-200 192q-152 -32 -160 -216z" />
<glyph unicode="&#xa8;" d="M744 1240v248h208v-248h-208zM1096 1240v248h208v-248h-208z" />
<glyph unicode="&#xad;" horiz-adv-x="1232" d="M80 584v248h1088v-248h-1088z" />
<glyph unicode="&#xb0;" d="M64 1312q24 320 344 344q328 -16 344 -344q-24 -304 -344 -328q-320 24 -344 328zM232 1312q8 -168 176 -176q168 8 176 176q-8 168 -176 176q-168 -8 -176 -176z" />
<glyph unicode="&#xb1;" d="M376 -64h1288v224h-1288v-224zM384 784v248h488v496h304v-496h496v-248h-496v-488h-304v488h-488z" />
<glyph unicode="&#xb7;" d="M832 520v392h384v-392h-384z" />
<glyph unicode="&#xd7;" d="M312 120l520 592l-504 584h376l320 -368l320 368h376l-504 -584l520 -592h-400l-312 360l-312 -360h-400z" />
<glyph unicode="&#xe0;" d="M376 456q0 656 688 656h224v16h376v-1304h-600q-696 -8 -688 632zM728 1600h320l184 -360h-192zM768 448q0 -392 368 -392h152v808h-136q-392 8 -384 -416z" />
<glyph unicode="&#xe1;" d="M376 456q0 656 688 656h224v16h376v-1304h-600q-696 -8 -688 632zM768 448q0 -392 368 -392h152v808h-136q-392 8 -384 -416zM824 1240l304 360h200l-184 -360h-320z" />
<glyph unicode="&#xe8;" d="M352 440q16 648 656 664q704 16 688 -752h-960q56 -296 416 -304q280 0 528 240v-256q-216 -216 -608 -216q-688 24 -720 624zM728 1600h320l184 -360h-192zM736 592h592q-16 264 -304 272q-240 0 -288 -272z" />
<glyph unicode="&#xe9;" d="M352 440q16 648 656 664q704 16 688 -752h-960q56 -296 416 -304q280 0 528 240v-256q-216 -216 -608 -216q-688 24 -720 624zM736 592h592q-16 264 -304 272q-240 0 -288 -272zM824 1240l304 360h200l-184 -360h-320z" />
<glyph unicode="&#xea;" d="M352 440q16 648 656 664q704 16 688 -752h-960q56 -296 416 -304q280 0 528 240v-256q-216 -216 -608 -216q-688 24 -720 624zM688 1232l208 368h280l216 -368h-192l-160 192l-168 -192h-184zM736 592h592q-16 264 -304 272q-240 0 -288 -272z" />
<glyph unicode="&#xec;" d="M728 1600h320l184 -360h-192zM840 -144v1224h376v-1224h-376z" />
<glyph unicode="&#xed;" d="M824 1240l304 360h200l-184 -360h-320zM840 -144v1224h376v-1224h-376z" />
<glyph unicode="&#xf2;" d="M352 456q32 632 680 656q640 -16 664 -656q-24 -608 -680 -632q-632 32 -664 632zM728 1600h320l184 -360h-192zM736 456q8 -384 280 -400q288 0 288 400t-288 408q-280 -8 -280 -408z" />
<glyph unicode="&#xf3;" d="M352 456q32 632 680 656q640 -16 664 -656q-24 -608 -680 -632q-632 32 -664 632zM736 456q8 -384 280 -400q288 0 288 400t-288 408q-280 -8 -280 -408zM824 1240l304 360h200l-184 -360h-320z" />
<glyph unicode="&#xf7;" d="M360 584v248h1328v-248h-1328zM872 16v304h304v-304h-304zM872 1080v312h304v-312h-304z" />
<glyph unicode="&#xf9;" d="M408 328v752h376v-728q0 -304 264 -296h216v1024h376v-1248h-720q-528 -16 -512 496zM728 1600h320l184 -360h-192z" />
<glyph unicode="&#xfa;" d="M408 328v752h376v-728q0 -304 264 -296h216v1024h376v-1248h-720q-528 -16 -512 496zM824 1240l304 360h200l-184 -360h-320z" />
<glyph unicode="&#xfc;" d="M408 328v752h376v-728q0 -304 264 -296h216v1024h376v-1248h-720q-528 -16 -512 496zM696 1240v240h208v-240h-208zM1152 1240v240h208v-240h-208z" />
<glyph unicode="&#x2000;" horiz-adv-x="912" vert-adv-y="0" />
<glyph unicode="&#x2001;" horiz-adv-x="1824" vert-adv-y="0" />
<glyph unicode="&#x2002;" horiz-adv-x="912" vert-adv-y="0" />
<glyph unicode="&#x2003;" horiz-adv-x="1824" vert-adv-y="0" />
<glyph unicode="&#x2004;" horiz-adv-x="608" vert-adv-y="0" />
<glyph unicode="&#x2005;" horiz-adv-x="456" vert-adv-y="0" />
<glyph unicode="&#x2006;" horiz-adv-x="304" vert-adv-y="0" />
<glyph unicode="&#x2007;" horiz-adv-x="304" vert-adv-y="0" />
<glyph unicode="&#x2008;" horiz-adv-x="228" vert-adv-y="0" />
<glyph unicode="&#x2009;" horiz-adv-x="364" vert-adv-y="0" />
<glyph unicode="&#x200a;" horiz-adv-x="101" vert-adv-y="0" />
<glyph unicode="&#x2010;" horiz-adv-x="1232" d="M80 584v248h1088v-248h-1088z" />
<glyph unicode="&#x2011;" horiz-adv-x="1232" d="M80 584v248h1088v-248h-1088z" />
<glyph unicode="&#x2012;" horiz-adv-x="1232" d="M80 584v248h1088v-248h-1088z" />
<glyph unicode="&#x2013;" horiz-adv-x="1168" d="M80 584v248h1024v-248h-1024z" />
<glyph unicode="&#x2014;" d="M0 592v248h2048v-248h-2048z" />
<glyph unicode="&#x2018;" d="M1352 968v304q0 352 360 456v-136q-192 -96 -192 -272h184v-352h-352z" />
<glyph unicode="&#x2019;" d="M328 968v128q200 104 192 288h-176v344h344v-304q0 -336 -360 -456z" />
<glyph unicode="&#x201c;" d="M1136 968v304q-8 352 352 456v-136q-192 -104 -184 -272h176v-352h-344zM1584 968v304q-8 352 352 456v-136q-192 -104 -184 -272h176v-352h-344z" />
<glyph unicode="&#x201d;" d="M112 968v128q184 112 184 288h-176v344h344v-304q8 -344 -352 -456zM560 968v128q184 88 184 288h-176v344h344v-304q8 -336 -352 -456z" />
<glyph unicode="&#x2026;" d="M144 520v392h392v-392h-392zM832 520v392h384v-392h-384zM1512 520v392h392v-392h-392z" />
<glyph unicode="&#x202f;" horiz-adv-x="364" vert-adv-y="0" />
<glyph unicode="&#x205f;" horiz-adv-x="456" vert-adv-y="0" />
<glyph unicode="&#x20ac;" horiz-adv-x="1816" d="M32 424v208h216v88v80h-216v200h248q160 600 768 624q600 -16 736 -576h-360q-104 328 -368 336q-304 -8 -392 -384h576v-200h-600v-80v-88h600v-208h-568q120 -376 512 -376q352 0 568 384v-336q-192 -280 -688 -280q-624 24 -784 608h-248z" />
<glyph unicode="&#x25fc;" horiz-adv-x="1080" vert-adv-y="2160" d="M0 0v1080h1080v-1080h-1080z" />
</font>
</defs>
</svg>
